<svg width="42" height="42" viewBox="0 0 42 42" fill="none" xmlns="http://www.w3.org/2000/svg">
<path d="M21 20C19.625 20 18.4479 19.5104 17.4688 18.5312C16.4896 17.5521 16 16.375 16 15C16 13.625 16.4896 12.4479 17.4688 11.4688C18.4479 10.4896 19.625 10 21 10C22.375 10 23.5521 10.4896 24.5312 11.4688C25.5104 12.4479 26 13.625 26 15C26 16.375 25.5104 17.5521 24.5312 18.5312C23.5521 19.5104 22.375 20 21 20ZM11 30V26.5C11 25.7917 11.1825 25.1404 11.5475 24.5463C11.9117 23.9529 12.3958 23.5 13 23.1875C14.2917 22.5417 15.6042 22.0571 16.9375 21.7338C18.2708 21.4113 19.625 21.25 21 21.25C22.375 21.25 23.7292 21.4113 25.0625 21.7338C26.3958 22.0571 27.7083 22.5417 29 23.1875C29.6042 23.5 30.0883 23.9529 30.4525 24.5463C30.8175 25.1404 31 25.7917 31 26.5V30H11ZM13.5 27.5H28.5V26.5C28.5 26.2708 28.4429 26.0625 28.3288 25.875C28.2138 25.6875 28.0625 25.5417 27.875 25.4375C26.75 24.875 25.6146 24.4529 24.4688 24.1712C23.3229 23.8904 22.1667 23.75 21 23.75C19.8333 23.75 18.6771 23.8904 17.5313 24.1712C16.3854 24.4529 15.25 24.875 14.125 25.4375C13.9375 25.5417 13.7867 25.6875 13.6725 25.875C13.5575 26.0625 13.5 26.2708 13.5 26.5V27.5ZM21 17.5C21.6875 17.5 22.2762 17.255 22.7663 16.765C23.2554 16.2758 23.5 15.6875 23.5 15C23.5 14.3125 23.2554 13.7242 22.7663 13.235C22.2762 12.745 21.6875 12.5 21 12.5C20.3125 12.5 19.7242 12.745 19.235 13.235C18.745 13.7242 18.5 14.3125 18.5 15C18.5 15.6875 18.745 16.2758 19.235 16.765C19.7242 17.255 20.3125 17.5 21 17.5Z" fill="#1C1B1F"/>
</svg>
