<svg xmlns="http://www.w3.org/2000/svg" width="63" height="63" fill="#000" xmlns:v="https://vecta.io/nano"><path d="M24.777 43.79a1.32 1.32 0 0 1-.929-.383L6.216 25.772a5.26 5.26 0 0 1 0-7.426 5.26 5.26 0 0 1 7.424 0l15.779 15.779c.512.512.512 1.344 0 1.856s-1.344.512-1.856 0L11.784 20.202c-1.018-1.019-2.683-1.021-3.712 0a2.62 2.62 0 0 0-.769 1.856 2.61 2.61 0 0 0 .769 1.858l17.635 17.632c.512.512.512 1.344 0 1.856a1.31 1.31 0 0 1-.929.386z"/><path d="M34.059 30.797a1.32 1.32 0 0 1-.929-.383L15.498 12.779c-1.026-1.026-2.688-1.026-3.714 0-.493.496-.769 1.155-.769 1.856s.273 1.36.769 1.856l1.856 1.856c.512.512.512 1.344 0 1.856s-1.344.512-1.856 0l-1.856-1.856c-.992-.992-1.538-2.31-1.538-3.712s.546-2.719 1.538-3.712c1.982-1.982 5.439-1.987 7.426 0l17.632 17.635c.512.512.512 1.344 0 1.856a1.3 1.3 0 0 1-.927.383z"/><path d="M39.63 25.229a1.32 1.32 0 0 1-.929-.383L24.777 10.923c-1.026-1.026-2.685-1.026-3.712 0a2.63 2.63 0 0 0 0 3.712c.512.512.512 1.344 0 1.856s-1.344.512-1.856 0a5.26 5.26 0 0 1 0-7.423 5.26 5.26 0 0 1 7.423 0L40.556 22.99c.512.512.512 1.344 0 1.856a1.31 1.31 0 0 1-.927.383z"/><path d="M38.196 59.467c-.885 0-1.78-.1-2.667-.302l-22.103-5.066c-.956-.2-1.845-.688-2.57-1.412a5.22 5.22 0 0 1-1.541-3.712c0-1.402.549-2.72 1.541-3.712a5.12 5.12 0 0 1 2.407-1.37c.026-.011.053-.016.079-.024l11.13-2.67a1.31 1.31 0 0 1 1.583.971c.168.706-.268 1.412-.971 1.583l-11.054 2.651-.105.029c-.441.097-.861.336-1.213.688a2.61 2.61 0 0 0-.772 1.856 2.6 2.6 0 0 0 .772 1.856c.349.349.782.596 1.218.693.018.003.034.005.05.011l22.137 5.074a9.13 9.13 0 0 0 8.55-2.46l10.741-10.744c1.735-1.735 2.691-4.042 2.691-6.497a9.13 9.13 0 0 0-2.691-6.497L32.206 7.211a2.62 2.62 0 0 0-3.712 0 2.63 2.63 0 0 0 0 3.712c.512.512.512 1.344 0 1.856s-1.344.512-1.856 0a5.26 5.26 0 0 1 0-7.423 5.26 5.26 0 0 1 7.423 0l23.202 23.202a11.72 11.72 0 0 1 3.46 8.353 11.73 11.73 0 0 1-3.46 8.353L46.523 56.007c-2.252 2.244-5.234 3.46-8.327 3.46z"/></svg>