<svg xmlns="http://www.w3.org/2000/svg" width="78" height="78" fill="none" xmlns:v="https://vecta.io/nano"><path d="M63.661 50.349l-5.895-4.192a21.07 21.07 0 0 0-.016-11.118l5.915-4.14-4.722-8.171-6.578 3.009c-2.659-2.678-5.988-4.593-9.639-5.544L42.097 13h-9.444l-.627 7.192a21.07 21.07 0 0 0-9.636 5.548l-6.581-3.009-4.719 8.171 5.915 4.14a21.07 21.07 0 0 0-.02 11.115l-5.895 4.192 4.719 8.132 6.581-3.013a21.07 21.07 0 0 0 9.636 5.545l.627 7.192h9.444l.627-7.192c3.651-.952 6.978-2.867 9.636-5.545l6.581 3.013 4.722-8.128-.003-.003zM43.891 9.701c.418 0 .821.16 1.123.449s.482.683.502 1.101l.578 6.614a24.21 24.21 0 0 1 6.64 3.828l6.013-2.805c.371-.191.802-.232 1.203-.114s.74.386.949.748L67.415 30.8c.209.361.272.79.174 1.196s-.349.759-.7.985l-5.44 3.809a24.17 24.17 0 0 1 .003 7.667l5.437 3.803c.352.226.603.579.701.986s.035.836-.175 1.198l-6.516 11.235c-.209.362-.548.63-.949.748s-.831.077-1.203-.114l-6.013-2.805c-1.956 1.593-4.186 2.892-6.64 3.832l-.578 6.614c-.02.417-.2.811-.503 1.099s-.704.448-1.122.448H30.859c-.418.001-.82-.16-1.122-.448s-.483-.682-.503-1.099l-.578-6.614a24.22 24.22 0 0 1-6.64-3.832l-6.012 2.805c-.371.192-.803.234-1.204.117s-.742-.385-.951-.747L7.335 50.44c-.209-.361-.271-.79-.173-1.196s.349-.759.7-.985l5.437-3.806a24.21 24.21 0 0 1 0-7.667l-5.434-3.806c-.35-.226-.6-.578-.698-.984s-.036-.833.172-1.194l6.507-11.281c.208-.363.549-.631.95-.749s.833-.077 1.205.115l6.012 2.805a24.21 24.21 0 0 1 6.64-3.828l.578-6.614c.019-.418.199-.812.502-1.101s.705-.45 1.123-.449h13.033.003zM37.375 29.25c3.017 0 5.91 1.198 8.043 3.332s3.332 5.026 3.332 8.043-1.199 5.91-3.332 8.043S40.392 52 37.375 52s-5.91-1.198-8.043-3.332S26 43.642 26 40.625s1.198-5.91 3.332-8.043 5.026-3.332 8.043-3.332zm0 3.25c-2.155 0-4.222.856-5.745 2.38s-2.38 3.59-2.38 5.745.856 4.222 2.38 5.745 3.59 2.38 5.745 2.38 4.221-.856 5.745-2.38 2.38-3.59 2.38-5.745-.856-4.221-2.38-5.745-3.59-2.38-5.745-2.38z" fill="#000"/></svg>