<svg xmlns="http://www.w3.org/2000/svg" width="96" height="40" fill="#87bf8f" xmlns:v="https://vecta.io/nano"><path d="M52.33 16.479l-7.527 18.699-8.715-21.648c-.064-.159-.148-.303-.249-.428C33.185 5.792 26.434.597 18.523.597 8.292.596 0 9.281 0 19.994s8.292 19.398 18.522 19.398c6.209 0 11.704-3.202 15.064-8.113v8.113h3.603v-5.33l-3.883-9.646c-1.822 6.734-7.735 11.668-14.749 11.668-8.465 0-15.328-7.187-15.328-16.053S10.092 3.978 18.557 3.978c6.483 0 12.026 4.215 14.267 10.171l.009.019 10.161 25.241h3.62v-.003l7.88-19.573-2.163-3.353-.001-.001zM80.285 4.388c4.328 0 8.225 1.933 10.948 5.018L76.478 21.133l1.956 2.701 10.524-8.364h-.001l.301-.239 3.901-3.1.012.022L96 9.928C92.76 4.397 86.933.706 80.284.706c-7.544 0-14.027 4.748-16.877 11.547l2.344 4.252C67.268 9.566 73.198 4.39 80.284 4.39l.001-.001zm12.516 24.097c-2.657 4.291-7.269 7.132-12.516 7.132-4.613 0-8.736-2.195-11.47-5.641-.183-.238-1.59-2.07-2.76-3.787l-5.99-10.867-2.17-3.937L62.259.545h-3.586l-4.422 10.984-.01.006.004.009-.003.006.008.003 8.833 16.022 1.108 1.854c.015.018.028.037.044.054 3.163 5.86 9.165 9.816 16.051 9.816 6.238 0 11.749-3.248 15.083-8.215l-2.567-2.599v-.001z"/></svg>