<svg width="26" height="25" viewBox="0 0 26 25" fill="none" xmlns="http://www.w3.org/2000/svg">
<rect width="26" height="25" fill="#F5F5F5"/>
<rect width="500" height="750" transform="translate(-375 -320)" fill="white"/>
<path d="M16.7293 12.4999C16.7293 14.5624 15.0627 16.2291 13.0002 16.2291C10.9377 16.2291 9.271 14.5624 9.271 12.4999C9.271 10.4374 10.9377 8.77075 13.0002 8.77075C15.0627 8.77075 16.7293 10.4374 16.7293 12.4999Z" stroke="#A6A4A4" stroke-width="1.5" stroke-linecap="round" stroke-linejoin="round"/>
<path d="M13.1927 20.9896C16.8698 20.9896 20.2969 18.8229 22.6823 15.0729C23.6198 13.6042 23.6198 11.1354 22.6823 9.66667C20.2969 5.91667 16.8698 3.75 13.1927 3.75C9.51562 3.75 6.08854 5.91667 3.70312 9.66667C2.76563 11.1354 2.76563 13.6042 3.70312 15.0729C6.08854 18.8229 9.51562 20.9896 13.1927 20.9896Z" stroke="#A6A4A4" stroke-width="1.5" stroke-linecap="round" stroke-linejoin="round"/>
<rect x="-286" y="-9.5" width="323" height="44" rx="9.5" stroke="#A6A4A4"/>
</svg>
