<svg width="25" height="25" viewBox="0 0 25 25" fill="none" xmlns="http://www.w3.org/2000/svg">
<g id="Iconsax/Linear/eyeslash">
<path id="Vector" d="M15.1354 9.86457L9.86457 15.1354C9.16562 14.4365 8.77295 13.4885 8.77295 12.5C8.77295 12.0105 8.86935 11.5259 9.05665 11.0737C9.24395 10.6215 9.51849 10.2107 9.86457 9.86457C10.2107 9.51849 10.6215 9.24395 11.0737 9.05665C11.5259 8.86935 12.0105 8.77295 12.5 8.77295C13.4885 8.77295 14.4365 9.16562 15.1354 9.86457Z" stroke="#A6A4A4" stroke-width="1.5" stroke-linecap="round" stroke-linejoin="round"/>
<path id="Vector_2" d="M18.5623 6.0105C16.7394 4.6355 14.6561 3.8855 12.4998 3.8855C8.82275 3.8855 5.39567 6.05216 3.01025 9.80216C2.07275 11.2709 2.07275 13.7397 3.01025 15.2084C3.83317 16.5001 4.7915 17.6147 5.83317 18.5105M8.77067 20.3438C9.95817 20.8438 11.2186 21.1147 12.4998 21.1147C16.1769 21.1147 19.604 18.948 21.9894 15.198C22.9269 13.7292 22.9269 11.2605 21.9894 9.79175C21.6457 9.25008 21.2707 8.73966 20.8853 8.2605" stroke="#A6A4A4" stroke-width="1.5" stroke-linecap="round" stroke-linejoin="round"/>
<path id="Vector_3" d="M16.1564 13.2291C16.0153 13.9557 15.6603 14.6236 15.1368 15.147C14.6134 15.6704 13.9456 16.0255 13.2189 16.1666M9.86475 15.1353L2.0835 22.9166M22.9168 2.08325L15.1356 9.8645" stroke="#A6A4A4" stroke-width="1.5" stroke-linecap="round" stroke-linejoin="round"/>
</g>
</svg>
