<svg width="25" height="25" viewBox="0 0 25 25" fill="none" xmlns="http://www.w3.org/2000/svg">
<g id="lock">
<mask id="mask0_211_110" style="mask-type:alpha" maskUnits="userSpaceOnUse" x="0" y="0" width="25" height="25">
<rect id="Bounding box" x="0.5" y="0.5" width="24" height="24" fill="#D9D9D9"/>
</mask>
<g mask="url(#mask0_211_110)">
<path id="lock_2" opacity="0.8" d="M6.5 22.5C5.95 22.5 5.47933 22.3043 5.088 21.913C4.696 21.521 4.5 21.05 4.5 20.5V10.5C4.5 9.95 4.696 9.479 5.088 9.087C5.47933 8.69567 5.95 8.5 6.5 8.5H7.5V6.5C7.5 5.11667 7.98767 3.93733 8.963 2.962C9.93767 1.98733 11.1167 1.5 12.5 1.5C13.8833 1.5 15.0627 1.98733 16.038 2.962C17.0127 3.93733 17.5 5.11667 17.5 6.5V8.5H18.5C19.05 8.5 19.521 8.69567 19.913 9.087C20.3043 9.479 20.5 9.95 20.5 10.5V20.5C20.5 21.05 20.3043 21.521 19.913 21.913C19.521 22.3043 19.05 22.5 18.5 22.5H6.5ZM6.5 20.5H18.5V10.5H6.5V20.5ZM12.5 17.5C13.05 17.5 13.521 17.3043 13.913 16.913C14.3043 16.521 14.5 16.05 14.5 15.5C14.5 14.95 14.3043 14.479 13.913 14.087C13.521 13.6957 13.05 13.5 12.5 13.5C11.95 13.5 11.4793 13.6957 11.088 14.087C10.696 14.479 10.5 14.95 10.5 15.5C10.5 16.05 10.696 16.521 11.088 16.913C11.4793 17.3043 11.95 17.5 12.5 17.5ZM9.5 8.5H15.5V6.5C15.5 5.66667 15.2083 4.95833 14.625 4.375C14.0417 3.79167 13.3333 3.5 12.5 3.5C11.6667 3.5 10.9583 3.79167 10.375 4.375C9.79167 4.95833 9.5 5.66667 9.5 6.5V8.5Z" fill="#A89D9D"/>
</g>
</g>
</svg>
