<svg width="25" height="25" viewBox="0 0 25 25" fill="none" xmlns="http://www.w3.org/2000/svg">
<g id="mail" opacity="0.8">
<mask id="mask0_211_104" style="mask-type:alpha" maskUnits="userSpaceOnUse" x="0" y="0" width="25" height="25">
<rect id="Bounding box" x="0.5" y="0.5" width="24" height="24" fill="#D9D9D9"/>
</mask>
<g mask="url(#mask0_211_104)">
<path id="mail_2" d="M4.5 20.5C3.95 20.5 3.47933 20.3043 3.088 19.913C2.696 19.521 2.5 19.05 2.5 18.5V6.5C2.5 5.95 2.696 5.47933 3.088 5.088C3.47933 4.696 3.95 4.5 4.5 4.5H20.5C21.05 4.5 21.521 4.696 21.913 5.088C22.3043 5.47933 22.5 5.95 22.5 6.5V18.5C22.5 19.05 22.3043 19.521 21.913 19.913C21.521 20.3043 21.05 20.5 20.5 20.5H4.5ZM12.5 13.5L4.5 8.5V18.5H20.5V8.5L12.5 13.5ZM12.5 11.5L20.5 6.5H4.5L12.5 11.5ZM4.5 8.5V6.5V18.5V8.5Z" fill="#AEA3A3"/>
</g>
</g>
</svg>
