<svg width="25" height="25" viewBox="0 0 25 25" fill="none" xmlns="http://www.w3.org/2000/svg">
<g id="person_filled">
<mask id="mask0_211_101" style="mask-type:alpha" maskUnits="userSpaceOnUse" x="0" y="0" width="25" height="25">
<rect id="Bounding box" x="0.5" y="0.5" width="24" height="24" fill="#D9D9D9"/>
</mask>
<g mask="url(#mask0_211_101)">
<path id="person_filled_2" opacity="0.8" d="M12.5 12.5C11.4 12.5 10.4583 12.1083 9.675 11.325C8.89167 10.5417 8.5 9.6 8.5 8.5C8.5 7.4 8.89167 6.45833 9.675 5.675C10.4583 4.89167 11.4 4.5 12.5 4.5C13.6 4.5 14.5417 4.89167 15.325 5.675C16.1083 6.45833 16.5 7.4 16.5 8.5C16.5 9.6 16.1083 10.5417 15.325 11.325C14.5417 12.1083 13.6 12.5 12.5 12.5ZM4.5 20.5V17.7C4.5 17.1333 4.646 16.6123 4.938 16.137C5.22933 15.6623 5.61667 15.3 6.1 15.05C7.13333 14.5333 8.18333 14.1457 9.25 13.887C10.3167 13.629 11.4 13.5 12.5 13.5C13.6 13.5 14.6833 13.629 15.75 13.887C16.8167 14.1457 17.8667 14.5333 18.9 15.05C19.3833 15.3 19.7707 15.6623 20.062 16.137C20.354 16.6123 20.5 17.1333 20.5 17.7V20.5H4.5ZM6.5 18.5H18.5V17.7C18.5 17.5167 18.4543 17.35 18.363 17.2C18.271 17.05 18.15 16.9333 18 16.85C17.1 16.4 16.1917 16.0623 15.275 15.837C14.3583 15.6123 13.4333 15.5 12.5 15.5C11.5667 15.5 10.6417 15.6123 9.725 15.837C8.80833 16.0623 7.9 16.4 7 16.85C6.85 16.9333 6.72933 17.05 6.638 17.2C6.546 17.35 6.5 17.5167 6.5 17.7V18.5ZM12.5 10.5C13.05 10.5 13.521 10.304 13.913 9.912C14.3043 9.52067 14.5 9.05 14.5 8.5C14.5 7.95 14.3043 7.47933 13.913 7.088C13.521 6.696 13.05 6.5 12.5 6.5C11.95 6.5 11.4793 6.696 11.088 7.088C10.696 7.47933 10.5 7.95 10.5 8.5C10.5 9.05 10.696 9.52067 11.088 9.912C11.4793 10.304 11.95 10.5 12.5 10.5Z" fill="#AB9D9D"/>
</g>
</g>
</svg>
